<?xml version="1.0" encoding="UTF-8" standalone="no"?>
<!-- Created with Inkscape (http://www.inkscape.org/) -->

<svg
   xmlns:dc="http://purl.org/dc/elements/1.1/"
   xmlns:cc="http://creativecommons.org/ns#"
   xmlns:rdf="http://www.w3.org/1999/02/22-rdf-syntax-ns#"
   xmlns:svg="http://www.w3.org/2000/svg"
   xmlns="http://www.w3.org/2000/svg"
   xmlns:sodipodi="http://sodipodi.sourceforge.net/DTD/sodipodi-0.dtd"
   xmlns:inkscape="http://www.inkscape.org/namespaces/inkscape"
   width="128"
   height="128"
   id="svg2"
   version="1.1"
   inkscape:version="0.48.4 r9939"
   sodipodi:docname="editoricons.svg"
   inkscape:export-filename="D:\Work\vongott\vongott\Assets\Resources\Textures\UI\Editor\intersect.png"
   inkscape:export-xdpi="90"
   inkscape:export-ydpi="90">
  <defs
     id="defs4" />
  <sodipodi:namedview
     id="base"
     pagecolor="#ffffff"
     bordercolor="#666666"
     borderopacity="1.0"
     inkscape:pageopacity="0.0"
     inkscape:pageshadow="2"
     inkscape:zoom="2.8"
     inkscape:cx="24.1983"
     inkscape:cy="93.984201"
     inkscape:document-units="px"
     inkscape:current-layer="layer1"
     showgrid="true"
     inkscape:window-width="1920"
     inkscape:window-height="1006"
     inkscape:window-x="-4"
     inkscape:window-y="7"
     inkscape:window-maximized="1">
    <inkscape:grid
       type="xygrid"
       id="grid2985"
       empspacing="16"
       visible="true"
       enabled="true"
       snapvisiblegridlinesonly="true" />
  </sodipodi:namedview>
  <metadata
     id="metadata7">
    <rdf:RDF>
      <cc:Work
         rdf:about="">
        <dc:format>image/svg+xml</dc:format>
        <dc:type
           rdf:resource="http://purl.org/dc/dcmitype/StillImage" />
        <dc:title></dc:title>
      </cc:Work>
    </rdf:RDF>
  </metadata>
  <g
     inkscape:label="layer 1"
     inkscape:groupmode="layer"
     id="layer1"
     transform="translate(0,-924.36218)">
    <path
       style="fill:#000000;fill-opacity:1;fill-rule:evenodd;stroke:none"
       d="m -100,924.36218 c -26.50967,0 -48,21.49033 -48,48 l -32,0 0,80.00002 80,0 0,-32 c 26.50967,0 48,-21.49035 48,-48.00002 0,-26.50967 -21.49033,-48 -48,-48 z"
       id="rect2987"
       inkscape:connector-curvature="0" />
    <g
       id="g3807"
       transform="translate(0,140)">
      <path
         id="rect3784"
         transform="translate(0,924.36218)"
         d="m 0,48 0,80 80,0 0,-32 C 53.490332,96 32,74.509668 32,48 L 0,48 z"
         style="fill:#000000;fill-opacity:1;stroke:none"
         inkscape:connector-curvature="0" />
      <path
         transform="matrix(0.98958606,0,0,0.98958606,0.8331155,924.86205)"
         d="M 128,48 C 128,74.509668 106.50967,96 80,96 53.490332,96 32,74.509668 32,48 32,21.490332 53.490332,0 80,0 c 26.50967,0 48,21.490332 48,48 z"
         sodipodi:ry="48"
         sodipodi:rx="48"
         sodipodi:cy="48"
         sodipodi:cx="80"
         id="path3786"
         style="fill:none;stroke:#000000;stroke-width:1;stroke-miterlimit:4;stroke-opacity:1;stroke-dasharray:3, 3;stroke-dashoffset:0"
         sodipodi:type="arc" />
    </g>
    <g
       id="g3837">
      <path
         id="rect3811"
         transform="translate(0,924.36218)"
         d="m 32,48 c 0,26.509668 21.490332,48 48,48 l 0,-48 -48,0 z"
         style="fill:#000000;fill-opacity:1;stroke:none"
         inkscape:connector-curvature="0" />
      <rect
         y="972.97949"
         x="0.61728394"
         height="78.765434"
         width="78.765434"
         id="rect3811-4"
         style="fill:none;stroke:#000000;stroke-width:0.98456788;stroke-miterlimit:4;stroke-opacity:1;stroke-dasharray:2.9537037, 2.9537037;stroke-dashoffset:0" />
      <path
         transform="matrix(0.99079529,0,0,0.99079529,0.73637703,924.80401)"
         d="M 128,48 C 128,74.509668 106.50967,96 80,96 53.490332,96 32,74.509668 32,48 32,21.490332 53.490332,0 80,0 c 26.50967,0 48,21.490332 48,48 z"
         sodipodi:ry="48"
         sodipodi:rx="48"
         sodipodi:cy="48"
         sodipodi:cx="80"
         id="path3813"
         style="fill:none;stroke:#000000;stroke-width:1;stroke-miterlimit:4;stroke-opacity:1;stroke-dasharray:3, 3;stroke-dashoffset:0"
         sodipodi:type="arc" />
    </g>
  </g>
</svg>
