<?xml version="1.0" encoding="UTF-8" standalone="no"?>
<!-- Created with Inkscape (http://www.inkscape.org/) -->

<svg
   xmlns:dc="http://purl.org/dc/elements/1.1/"
   xmlns:cc="http://creativecommons.org/ns#"
   xmlns:rdf="http://www.w3.org/1999/02/22-rdf-syntax-ns#"
   xmlns:svg="http://www.w3.org/2000/svg"
   xmlns="http://www.w3.org/2000/svg"
   xmlns:sodipodi="http://sodipodi.sourceforge.net/DTD/sodipodi-0.dtd"
   xmlns:inkscape="http://www.inkscape.org/namespaces/inkscape"
   width="1024"
   height="1024"
   id="svg2"
   version="1.1"
   inkscape:version="0.48.4 r9939"
   sodipodi:docname="main_menu.svg">
  <defs
     id="defs4">
    <path
       sodipodi:type="arc"
       style="fill:#ff0000;fill-opacity:0.05291006;stroke:none"
       id="path3840-6"
       sodipodi:cx="350.17856"
       sodipodi:cy="441.11218"
       sodipodi:rx="29.107143"
       sodipodi:ry="28.035715"
       d="m 379.2857,441.11218 a 29.107143,28.035715 0 1 1 -58.21429,0 29.107143,28.035715 0 1 1 58.21429,0 z"
       transform="matrix(2.5745976,-4.6994697,4.8790674,2.67299,-2681.7377,992.74616)" />
  </defs>
  <sodipodi:namedview
     id="base"
     pagecolor="#ffffff"
     bordercolor="#666666"
     borderopacity="1.0"
     inkscape:pageopacity="0.0"
     inkscape:pageshadow="2"
     inkscape:zoom="0.49497475"
     inkscape:cx="392.41691"
     inkscape:cy="732.12341"
     inkscape:document-units="px"
     inkscape:current-layer="layer1"
     showgrid="false"
     inkscape:window-width="1920"
     inkscape:window-height="1018"
     inkscape:window-x="-8"
     inkscape:window-y="-8"
     inkscape:window-maximized="1" />
  <metadata
     id="metadata7">
    <rdf:RDF>
      <cc:Work
         rdf:about="">
        <dc:format>image/svg+xml</dc:format>
        <dc:type
           rdf:resource="http://purl.org/dc/dcmitype/StillImage" />
      </cc:Work>
    </rdf:RDF>
  </metadata>
  <g
     inkscape:label="Layer 1"
     inkscape:groupmode="layer"
     id="layer1"
     transform="translate(0,-28.362183)">
    <g
       transform="translate(0,300.57129)"
       style="font-size:40px;font-style:normal;font-weight:normal;line-height:125%;letter-spacing:0px;word-spacing:0px;fill:#000000;fill-opacity:1;stroke:none;font-family:Sans"
       id="text3991">
      <path
         d="m 294.8461,220.83785 c -6.31942,-6.55374 -12.96827,-12.91938 -19.94657,-19.09696 -6.97838,-6.1775 -14.16954,-11.85147 -21.57351,-17.02191 l 11.41947,43.9414 -14.90706,3.87404 -17.43048,-67.07141 12.29308,-3.19471 c 2.68176,1.57548 5.71586,3.57645 9.10231,6.00289 3.38642,2.42658 6.87559,5.05027 10.46753,7.87106 3.59189,2.82092 7.20046,5.77461 10.82572,8.86108 3.62519,3.08657 7.05244,6.07056 10.28178,8.95198 l -10.28727,-39.58477 15.00157,-3.8986 17.43048,67.07141 z"
         style="font-size:100px;font-style:normal;font-variant:normal;font-weight:bold;font-stretch:normal;text-align:center;text-anchor:middle;font-family:Ubuntu;-inkscape-font-specification:Ubuntu Bold"
         id="path4290"
         inkscape:connector-curvature="0" />
      <path
         d="m 323.21267,214.36776 -12.42222,-68.17685 46.0437,-8.38943 2.3479,12.88599 -30.6958,5.59295 2.43816,13.38138 27.25213,-4.9655 2.29429,12.59176 -27.25212,4.9655 2.99341,16.42873 32.95955,-6.00542 2.34845,12.889 z"
         style="font-size:100px;font-style:normal;font-variant:normal;font-weight:bold;font-stretch:normal;text-align:center;text-anchor:middle;font-family:Ubuntu;-inkscape-font-specification:Ubuntu Bold"
         id="path4292"
         inkscape:connector-curvature="0" />
      <path
         d="m 423.15342,137.38613 c 1.05856,2.64285 2.23391,5.62643 3.52603,8.95075 1.29201,3.32443 2.66166,6.75885 4.10892,10.30325 1.44716,3.54449 2.91154,7.08677 4.39314,10.62684 1.48148,3.54014 2.90347,6.81825 4.26597,9.83431 0.53569,-3.46722 1.05928,-7.23478 1.5708,-11.30268 0.51138,-4.06784 0.95989,-8.26351 1.34553,-12.58703 0.38551,-4.32342 0.75645,-8.62912 1.11282,-12.91712 0.35624,-4.28788 0.6764,-8.42107 0.96047,-12.39959 l 16.1267,-1.55806 c -1.20745,11.76943 -2.74703,23.739 -4.61874,35.90874 -1.87188,12.16983 -4.05044,23.76679 -6.53566,34.79092 l -14.23426,1.37522 c -2.93631,-6.14666 -5.83768,-12.61453 -8.70411,-19.40364 -2.86653,-6.78906 -5.70167,-13.59753 -8.50542,-20.42542 -1.44283,7.23817 -2.88768,14.46014 -4.33457,21.66594 -1.44697,7.20584 -3.02405,14.1064 -4.73126,20.70169 l -14.23426,1.37522 c -4.54982,-10.34444 -8.90821,-21.30984 -13.07518,-32.89623 -4.16697,-11.58632 -7.96954,-23.03977 -11.40771,-34.36037 l 16.82231,-1.62527 c 1.0424,3.85036 2.16511,7.84415 3.36813,11.98138 1.20299,4.13735 2.44097,8.28761 3.71395,12.4508 1.27294,4.16328 2.54979,8.19225 3.83055,12.08694 1.28073,3.89475 2.54932,7.48916 3.80578,10.78323 0.88075,-3.36565 1.70879,-6.92808 2.48413,-10.68728 0.77528,-3.75914 1.51722,-7.51458 2.22583,-11.26633 0.70854,-3.75166 1.34736,-7.36325 1.91646,-10.83479 0.56904,-3.47143 1.08993,-6.56882 1.56269,-9.29216 z"
         style="font-size:100px;font-style:normal;font-variant:normal;font-weight:bold;font-stretch:normal;text-align:center;text-anchor:middle;font-family:Ubuntu;-inkscape-font-specification:Ubuntu Bold"
         id="path4294"
         inkscape:connector-curvature="0" />
      <path
         d="m 536.04172,138.32865 c -7.2662,-0.12585 -12.55038,1.79959 -15.85258,5.77632 -3.30225,3.97684 -5.014,9.46507 -5.13527,16.46471 -0.0589,3.39918 0.28738,6.48843 1.03892,9.26775 0.7515,2.77937 1.90988,5.18271 3.47515,7.21003 1.56522,2.02736 3.53798,3.61207 5.91828,4.75413 2.38023,1.14209 5.17026,1.74085 8.3701,1.79629 1.73309,0.03 3.21711,0.0222 4.45206,-0.0236 1.23486,-0.0457 2.31987,-0.16021 3.25504,-0.34343 l 0.41754,-24.09612 15.59825,0.27029 -0.59425,34.29356 c -1.87815,0.70202 -4.89116,1.43372 -9.03903,2.1951 -4.14797,0.76138 -9.25391,1.08953 -15.31781,0.98445 -5.19945,-0.0901 -9.90188,-0.97177 -14.10729,-2.64502 -4.20547,-1.67325 -7.78134,-4.06914 -10.72761,-7.18767 -2.9463,-3.11852 -5.19749,-6.92447 -6.75357,-11.41786 -1.55609,-4.49335 -2.28447,-9.60622 -2.18514,-15.33863 0.10049,-5.79946 1.08957,-10.91665 2.96723,-15.35159 1.87765,-4.43483 4.40967,-8.17519 7.59607,-11.22109 3.18637,-3.04577 6.91,-5.33196 11.17092,-6.85857 4.26086,-1.52647 8.79064,-2.24817 13.58936,-2.16509 3.26688,0.0567 6.21271,0.32444 8.8375,0.80327 2.6247,0.47896 4.88212,1.01864 6.77229,1.61904 1.89005,0.60053 3.44627,1.21098 4.66867,1.83134 1.22229,0.6205 2.09806,1.10216 2.62734,1.44497 l -4.71724,12.42014 c -2.1143,-1.16998 -4.54694,-2.19545 -7.29795,-3.07643 -2.75111,-0.88087 -5.7601,-1.34964 -9.02698,-1.40631 z"
         style="font-size:100px;font-style:normal;font-variant:normal;font-weight:bold;font-stretch:normal;text-align:center;text-anchor:middle;font-family:Ubuntu;-inkscape-font-specification:Ubuntu Bold"
         id="path4296"
         inkscape:connector-curvature="0" />
      <path
         d="m 617.56241,201.13759 c -0.50754,-2.45873 -1.09089,-4.99096 -1.75007,-7.59672 -0.65929,-2.60574 -1.30232,-5.20998 -1.92909,-7.8127 l -26.88439,-2.51692 c -1.09905,2.44115 -2.21429,4.88078 -3.3457,7.31888 -1.13146,2.43811 -2.1747,4.81807 -3.12972,7.13987 l -16.1282,-1.50992 c 3.28476,-7.19176 6.38351,-13.83185 9.29628,-19.92028 2.91274,-6.08839 5.74219,-11.81627 8.48836,-17.18367 2.74612,-5.36733 5.43244,-10.45575 8.05895,-15.26528 2.62646,-4.80943 5.32509,-9.49466 8.0959,-14.0557 l 14.83382,1.38874 c 1.80916,4.98982 3.57454,10.09297 5.29616,15.30947 1.72151,5.21659 3.43287,10.71672 5.13409,16.50041 1.7011,5.78375 3.41821,11.93729 5.15133,18.46063 1.733,6.52336 3.54593,13.62328 5.43879,21.29977 z M 603.93895,146.0267 c -0.42555,0.96557 -1.0508,2.2802 -1.87573,3.94389 -0.82501,1.66379 -1.77459,3.58355 -2.84874,5.75929 -1.07422,2.17583 -2.25322,4.57628 -3.537,7.20136 -1.28384,2.62515 -2.59632,5.38194 -3.93746,8.27037 l 19.61334,1.8362 c -0.78177,-3.08718 -1.54304,-6.03811 -2.28382,-8.8528 -0.74086,-2.81464 -1.45382,-5.39221 -2.13886,-7.73273 -0.68513,-2.34045 -1.27859,-4.40467 -1.78037,-6.19267 -0.50187,-1.78792 -0.90566,-3.19888 -1.21136,-4.23291 z"
         style="font-size:100px;font-style:normal;font-variant:normal;font-weight:bold;font-stretch:normal;text-align:center;text-anchor:middle;font-family:Ubuntu;-inkscape-font-specification:Ubuntu Bold"
         id="path4298"
         inkscape:connector-curvature="0" />
      <path
         d="m 673.68966,138.98008 c 0.78535,2.37934 1.65785,5.30037 2.61752,8.76312 0.95959,3.46285 1.93693,7.19931 2.93204,11.20938 0.99502,4.01016 1.95848,8.09981 2.89039,12.26897 0.93182,4.16922 1.80759,8.09083 2.62732,11.76484 2.06622,-3.14655 4.27253,-6.50486 6.61893,-10.07492 2.34629,-3.57001 4.69457,-7.05438 7.04482,-10.45312 2.35014,-3.39867 4.58646,-6.54777 6.70898,-9.44731 2.12239,-2.89945 3.97172,-5.32302 5.548,-7.27072 l 13.96845,2.55299 c -0.17269,4.64472 -0.49267,9.82138 -0.95995,15.53 -0.46745,5.70869 -1.04234,11.63502 -1.72465,17.77901 -0.68249,6.14402 -1.40044,12.2986 -2.15383,18.46374 -0.75357,6.16514 -1.49065,11.96048 -2.21126,17.38605 l -14.9531,-2.73296 c 1.01454,-6.66033 2.07083,-13.92212 3.16887,-21.78538 1.0979,-7.86325 2.04383,-15.82254 2.83779,-23.87791 -1.68219,2.53845 -3.55034,5.34792 -5.60447,8.42842 -2.05427,3.08055 -4.09205,6.1646 -6.11335,9.25214 -2.02142,3.08758 -3.96667,6.03601 -5.83578,8.84529 -1.86921,2.80929 -3.4608,5.21172 -4.77478,7.20728 l -10.72025,-1.95932 c -0.52325,-2.33135 -1.16216,-5.14145 -1.91674,-8.43029 -0.75465,-3.28881 -1.53123,-6.73471 -2.32974,-10.33768 -0.79858,-3.60293 -1.61372,-7.2084 -2.44544,-10.81642 -0.83178,-3.60796 -1.5864,-6.89678 -2.26384,-9.8665 -2.10481,7.81579 -4.0344,15.5953 -5.78879,23.33856 -1.75444,7.7433 -3.33508,14.90925 -4.74194,21.49788 l -14.9531,-2.73296 c 1.24503,-5.32971 2.60553,-11.01111 4.08151,-17.04422 1.47596,-6.03308 2.98143,-12.04372 4.51643,-18.03193 1.53496,-5.98815 3.09351,-11.7347 4.67565,-17.23967 1.5821,-5.50486 3.1139,-10.46004 4.5954,-14.86555 z"
         style="font-size:100px;font-style:normal;font-variant:normal;font-weight:bold;font-stretch:normal;text-align:center;text-anchor:middle;font-family:Ubuntu;-inkscape-font-specification:Ubuntu Bold"
         id="path4300"
         inkscape:connector-curvature="0" />
      <path
         d="m 731.08287,221.18247 17.97904,-66.92644 45.19923,12.14226 -3.39819,12.64966 -30.13282,-8.09485 -3.52882,13.13595 26.7523,7.18671 -3.3206,12.36082 -26.7523,-7.18671 -4.33245,16.12743 32.35505,8.69182 -3.39898,12.6526 z"
         style="font-size:100px;font-style:normal;font-variant:normal;font-weight:bold;font-stretch:normal;text-align:center;text-anchor:middle;font-family:Ubuntu;-inkscape-font-specification:Ubuntu Bold"
         id="path4302"
         inkscape:connector-curvature="0" />
    </g>
    <g
       style="font-size:40px;font-style:normal;font-weight:normal;line-height:125%;letter-spacing:0px;word-spacing:0px;fill:#000000;fill-opacity:1;stroke:none;font-family:Sans"
       id="text3991-1">
      <path
         d="m 424.34349,185.63669 1.60646,13.30363 -45.96735,5.55072 -8.30779,-68.79954 15.48808,-1.87024 6.70132,55.49591 z"
         style="font-size:100px;font-style:normal;font-variant:normal;font-weight:bold;font-stretch:normal;text-align:center;text-anchor:middle;font-family:Ubuntu;-inkscape-font-specification:Ubuntu Bold"
         id="path4281"
         inkscape:connector-curvature="0" />
      <path
         d="m 447.30537,162.63806 c 0.16177,3.39583 0.7238,6.43904 1.68609,9.12962 0.96224,2.69064 2.27256,4.98073 3.93096,6.87027 1.65835,1.88959 3.64537,3.31336 5.96106,4.27132 2.31564,0.958 4.93767,1.36723 7.86611,1.22769 2.86333,-0.13641 5.41832,-0.79229 7.66498,-1.96765 2.24657,-1.17533 4.10549,-2.78234 5.57675,-4.82104 1.47116,-2.03865 2.55833,-4.44296 3.26151,-7.21295 0.70306,-2.76992 0.97372,-5.8528 0.81199,-9.24864 -0.16194,-3.3978 -0.7253,-6.45826 -1.69008,-9.18138 -0.96489,-2.72303 -2.27651,-5.02986 -3.93488,-6.92049 -1.65847,-1.89053 -3.66175,-3.31353 -6.00984,-4.269 -2.34818,-0.95535 -4.95393,-1.36485 -7.81726,-1.22849 -2.92843,0.13958 -5.49891,0.8125 -7.71143,2.01876 -2.21258,1.20636 -4.05447,2.82886 -5.52565,4.86748 -1.47124,2.03872 -2.5571,4.45978 -3.25759,7.26317 -0.70052,2.80348 -0.97143,5.87059 -0.81272,9.20133 z m 52.83923,-2.51749 c 0.28227,5.92593 -0.35146,11.1785 -1.90116,15.75774 -1.54985,4.57929 -3.78435,8.4564 -6.70351,11.63134 -2.91929,3.17496 -6.4569,5.62932 -10.61284,7.36308 -4.15606,1.73377 -8.66457,2.71645 -13.52554,2.94805 -4.72694,0.22521 -9.22462,-0.32838 -13.49307,-1.66077 -4.2685,-1.33238 -8.03969,-3.43852 -11.31358,-6.31841 -3.27391,-2.87988 -5.91719,-6.52458 -7.92985,-10.93414 -2.01268,-4.40951 -3.16018,-9.57722 -3.44251,-15.50315 -0.28243,-5.92788 0.40153,-11.18387 2.05191,-15.76798 1.65036,-4.58401 3.98415,-8.48265 7.00137,-11.69594 3.01719,-3.21316 6.57026,-5.68506 10.65922,-7.4157 4.08891,-1.7305 8.43078,-2.70524 13.02562,-2.92423 4.72889,-0.22524 9.22759,0.3283 13.49611,1.66062 4.26843,1.33246 8.04042,3.45536 11.31598,6.36871 3.27543,2.91348 5.91901,6.57498 7.93073,10.98451 2.01158,4.40963 3.15862,9.57838 3.44112,15.50627 z"
         style="font-size:100px;font-style:normal;font-variant:normal;font-weight:bold;font-stretch:normal;text-align:center;text-anchor:middle;font-family:Ubuntu;-inkscape-font-specification:Ubuntu Bold"
         id="path4283"
         inkscape:connector-curvature="0" />
      <path
         d="m 561.11251,196.46444 c -0.65562,-2.42345 -1.39137,-4.91567 -2.20726,-7.47669 -0.81599,-2.561 -1.61567,-5.12147 -2.39902,-7.68143 l -26.98752,-0.88296 c -0.94908,2.50327 -1.91441,5.006 -2.89599,7.50819 -0.98161,2.50221 -1.8787,4.94101 -2.69124,7.31643 l -16.19007,-0.5297 c 2.84286,-7.37761 5.5335,-14.19329 8.07192,-20.44706 2.5384,-6.25373 5.01551,-12.14256 7.43134,-17.66653 2.41579,-5.52389 4.78878,-10.76576 7.11898,-15.72563 2.33016,-4.95976 4.73988,-9.79993 7.22918,-14.52052 l 14.89071,0.48719 c 2.10824,4.871 4.17966,9.85778 6.21426,14.96035 2.03449,5.10267 4.07604,10.48898 6.12466,16.15893 2.04849,5.67003 4.13538,11.70818 6.26067,18.11449 2.12516,6.40635 4.36505,13.38335 6.71967,20.931 z m -16.93842,-54.18393 c -0.36625,0.98958 -0.91067,2.33968 -1.63326,4.05032 -0.72266,1.71073 -1.55415,3.68451 -2.49446,5.92135 -0.94038,2.23693 -1.97173,4.70442 -3.09406,7.40248 -1.12238,2.69813 -2.26538,5.52939 -3.42899,8.49379 l 19.68856,0.64416 c -0.96743,-3.03412 -1.90614,-5.93349 -2.81614,-8.69812 -0.91009,-2.76455 -1.77794,-5.29418 -2.60358,-7.58889 -0.82571,-2.29462 -1.54318,-4.31908 -2.1524,-6.07338 -0.6093,-1.75421 -1.09786,-3.13812 -1.46567,-4.15171 z"
         style="font-size:100px;font-style:normal;font-variant:normal;font-weight:bold;font-stretch:normal;text-align:center;text-anchor:middle;font-family:Ubuntu;-inkscape-font-specification:Ubuntu Bold"
         id="path4285"
         inkscape:connector-curvature="0" />
      <path
         d="m 603.67192,186.99194 c 0.7225,0.14795 1.56214,0.29204 2.51892,0.43226 0.95672,0.14023 2.09731,0.28403 3.42177,0.43138 7.75241,0.86258 13.71802,-0.45266 17.89685,-3.94571 4.17873,-3.49302 6.65137,-8.68406 7.41792,-15.57314 0.80357,-7.22264 -0.37719,-12.88824 -3.54227,-16.9968 -3.16519,-4.10847 -8.62399,-6.59401 -16.3764,-7.45664 -1.05957,-0.11783 -2.15433,-0.22275 -3.28428,-0.31475 -1.13001,-0.0919 -2.19974,-0.1275 -3.20917,-0.10681 z m 47.25779,-16.87472 c -0.66353,5.96298 -2.16984,11.06092 -4.51892,15.29385 -2.34922,4.23295 -5.39203,7.61697 -9.12845,10.15207 -3.73653,2.5351 -8.13758,4.2588 -13.20315,5.17111 -5.06567,0.91231 -10.64669,1.02931 -16.74306,0.351 -2.78234,-0.30958 -6.01582,-0.78654 -9.70046,-1.43089 -3.68468,-0.64437 -7.27589,-1.53063 -10.77365,-2.65879 l 7.46412,-67.08481 c 3.65277,-0.26495 7.43015,-0.29757 11.33216,-0.0979 3.90196,0.19983 7.2441,0.4545 10.02644,0.764 5.89619,0.65611 11.17279,1.91361 15.82982,3.77253 4.65692,1.85904 8.54967,4.40472 11.67827,7.63707 3.12848,3.23245 5.37338,7.17153 6.73472,11.81727 1.36119,4.64582 1.69525,10.08363 1.00216,16.31347 z"
         style="font-size:100px;font-style:normal;font-variant:normal;font-weight:bold;font-stretch:normal;text-align:center;text-anchor:middle;font-family:Ubuntu;-inkscape-font-specification:Ubuntu Bold"
         id="path4287"
         inkscape:connector-curvature="0" />
    </g>
    <g
       transform="translate(0,157.34009)"
       style="font-size:40px;font-style:normal;font-weight:normal;line-height:125%;letter-spacing:0px;word-spacing:0px;fill:#000000;fill-opacity:1;stroke:none;font-family:Sans"
       id="text3991-1-2">
      <path
         d="m 707.72174,174.72866 c 0.62181,-3.34234 0.77312,-6.4333 0.45394,-9.27291 -0.31913,-2.83965 -1.06897,-5.36931 -2.2495,-7.58899 -1.18048,-2.21971 -2.78775,-4.06146 -4.82183,-5.52526 -2.034,-1.46381 -4.49216,-2.46382 -7.37447,-3.00001 -2.81822,-0.5243 -5.45554,-0.47222 -7.91196,0.15622 -2.45633,0.62843 -4.63441,1.76598 -6.53424,3.41265 -1.89973,1.64665 -3.50962,3.73732 -4.82967,6.27203 -1.31994,2.53467 -2.29082,5.47317 -2.91267,8.8155 -0.62209,3.34429 -0.77607,6.45235 -0.46193,9.3242 0.31427,2.87178 1.06153,5.41804 2.24179,7.63878 1.18038,2.22065 2.80366,4.06538 4.86983,5.53419 2.06629,1.46871 4.50853,2.46523 7.32674,2.98957 2.88232,0.53615 5.53862,0.47106 7.96891,-0.19529 2.43037,-0.66644 4.59542,-1.82297 6.49516,-3.46958 1.89982,-1.64671 3.51228,-3.75398 4.83738,-6.32181 1.32517,-2.56792 2.29267,-5.49101 2.90252,-8.76929 z m -52.00689,-9.67503 c 1.08513,-5.83256 2.90728,-10.79954 5.46646,-14.90096 2.55932,-4.10144 5.6239,-7.36232 9.19373,-9.78265 3.56996,-2.42033 7.57639,-3.9974 12.01929,-4.7312 4.443,-0.73379 9.0567,-0.65565 13.84111,0.2344 4.65247,0.86552 8.90309,2.43645 12.75188,4.71279 3.84885,2.27635 7.03609,5.19168 9.56175,8.746 2.52568,3.5543 4.26205,7.70832 5.20912,12.46206 0.94708,4.7537 0.87809,10.04684 -0.20697,15.87941 -1.08541,5.83451 -2.95725,10.79329 -5.61552,14.87634 -2.65825,4.08296 -5.8244,7.34202 -9.49847,9.77718 -3.67402,2.43504 -7.69952,4.02563 -12.0765,4.77177 -4.37691,0.74601 -8.82659,0.69839 -13.34906,-0.14287 -4.65438,-0.86594 -8.90601,-2.43706 -12.75489,-4.71334 -3.84876,-2.27641 -7.03293,-5.20824 -9.55253,-8.7955 -2.51946,-3.58737 -4.25226,-7.7578 -5.19842,-12.51129 -0.94599,-4.75358 -0.87632,-10.04761 0.20902,-15.88214 z"
         style="font-size:100px;font-style:normal;font-variant:normal;font-weight:bold;font-stretch:normal;text-align:center;text-anchor:middle;font-family:Ubuntu;-inkscape-font-specification:Ubuntu Bold"
         id="path4266"
         inkscape:connector-curvature="0" />
      <path
         d="m 620.70336,196.73415 c -10.26828,-1.15659 -17.94869,-3.84943 -23.04125,-8.07852 -5.09245,-4.22921 -7.176,-10.45192 -6.25066,-18.66815 0.93276,-8.281 4.38854,-13.94635 10.36736,-16.99606 5.97892,-3.04975 14.13588,-3.9926 24.47088,-2.82853 l 4.87033,0.54855 2.59656,-23.0537 15.50256,1.74607 -7.64451,67.87224 c -3.45476,0.28031 -7.08485,0.3403 -10.89026,0.17996 -3.80537,-0.16046 -7.13237,-0.40108 -9.98101,-0.72186 z m 0.49384,-13.32803 c 1.12614,0.12678 2.23976,0.21894 3.34088,0.27648 1.10119,0.0574 2.05279,0.0976 2.85481,0.12038 l 2.2386,-19.87555 -4.87033,-0.54855 c -5.36561,-0.60437 -9.48862,-0.33067 -12.36902,0.8211 -2.88031,1.1517 -4.54433,3.71492 -4.99205,7.68966 -0.21628,1.92059 -0.0476,3.54984 0.50593,4.88775 0.55366,1.33782 1.43354,2.46009 2.63964,3.36683 1.20619,0.90663 2.71993,1.61353 4.54123,2.12071 1.82139,0.50708 3.85815,0.88747 6.11031,1.14119 z"
         style="font-size:100px;font-style:normal;font-variant:normal;font-weight:bold;font-stretch:normal;text-align:center;text-anchor:middle;font-family:Ubuntu;-inkscape-font-specification:Ubuntu Bold"
         id="path4268"
         inkscape:connector-curvature="0" />
      <path
         d="m 530.32609,189.40002 0.66062,-13.28314 20.87264,1.03807 2.78162,-55.93063 15.58133,0.77491 -2.78163,55.93063 20.87569,1.03822 -0.66061,13.28314 z"
         style="font-size:100px;font-style:normal;font-variant:normal;font-weight:bold;font-stretch:normal;text-align:center;text-anchor:middle;font-family:Ubuntu;-inkscape-font-specification:Ubuntu Bold"
         id="path4270"
         inkscape:connector-curvature="0" />
      <path
         d="m 523.55462,189.69951 -15.60047,-0.0612 0.27198,-69.29878 15.60047,0.0612 z"
         style="font-size:100px;font-style:normal;font-variant:normal;font-weight:bold;font-stretch:normal;text-align:center;text-anchor:middle;font-family:Ubuntu;-inkscape-font-specification:Ubuntu Bold"
         id="path4272"
         inkscape:connector-curvature="0" />
      <path
         d="m 480.83273,155.38081 c -0.17153,-3.39536 -0.7423,-6.43693 -1.71232,-9.12474 -0.96997,-2.68786 -2.28687,-4.97417 -3.95069,-6.85894 -1.66377,-1.88481 -3.65487,-3.30287 -5.97332,-4.25417 -2.31838,-0.95134 -4.94157,-1.35303 -7.8696,-1.20508 -2.86292,0.14464 -5.41602,0.80786 -7.65929,1.98968 -2.24319,1.18178 -4.09747,2.79413 -5.56287,4.83704 -1.4653,2.04287 -2.54555,4.4503 -3.24076,7.22229 -0.6951,2.77194 -0.95691,5.85558 -0.78541,9.25094 0.17171,3.39732 0.74386,6.45615 1.71646,9.17648 0.97271,2.72025 2.29096,5.0233 3.95475,6.90916 1.6639,1.88575 3.67126,3.30299 6.02209,4.25171 2.35091,0.9486 4.95783,1.35061 7.82076,1.20601 2.92802,-0.14799 5.49655,-0.8283 7.70559,-2.0409 2.20911,-1.21273 4.04632,-2.84051 5.51165,-4.88335 1.46537,-2.04294 2.54426,-4.46711 3.23669,-7.2725 0.69247,-2.80549 0.95456,-5.87336 0.78627,-9.20363 z m -52.83178,2.66935 c -0.29929,-5.92509 0.31933,-11.17947 1.85587,-15.76315 1.53668,-4.58372 3.76003,-8.46723 6.67005,-11.65055 2.91015,-3.18334 6.44069,-5.64786 10.59164,-7.39355 4.15105,-1.74571 8.65672,-2.74135 13.51701,-2.98692 4.72627,-0.23879 9.22552,0.30187 13.49779,1.62198 4.27231,1.32011 8.04954,3.4154 11.33168,6.28587 3.28218,2.87046 5.93593,6.50755 7.96125,10.9113 2.02534,4.40372 3.18769,9.56811 3.48705,15.4932 0.29948,5.92705 -0.36938,11.18498 -2.00658,15.77381 -1.63718,4.58873 -3.95975,8.49407 -6.96772,11.71601 -3.00795,3.22183 -6.5539,5.70393 -10.63787,7.44631 -4.08392,1.74225 -8.42297,2.72946 -13.01716,2.96166 -4.72822,0.23882 -9.22849,-0.30179 -13.50083,-1.62183 -4.27224,-1.32018 -8.05031,-3.43223 -11.33423,-6.33616 -3.2838,-2.90405 -5.93788,-6.55794 -7.96227,-10.96167 -2.02424,-4.40383 -3.18614,-9.56927 -3.48568,-15.49631 z"
         style="font-size:100px;font-style:normal;font-variant:normal;font-weight:bold;font-stretch:normal;text-align:center;text-anchor:middle;font-family:Ubuntu;-inkscape-font-specification:Ubuntu Bold"
         id="path4274"
         inkscape:connector-curvature="0" />
      <path
         d="m 367.25531,130.62039 c 5.4386,7.30124 11.2278,14.45762 17.36762,21.46917 6.1399,7.01149 12.55463,13.55043 19.24423,19.61686 l -5.76296,-45.03376 15.27764,-1.95508 8.79648,68.73876 -12.59867,1.61225 c -2.46067,-1.90241 -5.21695,-4.27149 -8.26885,-7.10725 -3.05186,-2.83588 -6.18069,-5.8803 -9.3865,-9.13326 -3.20574,-3.25307 -6.41122,-6.63995 -9.61643,-10.16066 -3.20513,-3.52081 -6.22691,-6.91479 -9.06535,-10.18196 l 5.19158,40.56882 -15.3745,1.96747 -8.79648,-68.73876 z"
         style="font-size:100px;font-style:normal;font-variant:normal;font-weight:bold;font-stretch:normal;text-align:center;text-anchor:middle;font-family:Ubuntu;-inkscape-font-specification:Ubuntu Bold"
         id="path4276"
         inkscape:connector-curvature="0" />
      <path
         d="m 322.26524,150.45468 c -2.15788,0.42467 -3.90454,0.95556 -5.23999,1.59267 -1.33539,0.63707 -2.3672,1.34971 -3.09544,2.13791 -0.72817,0.78816 -1.17228,1.63966 -1.33233,2.5545 -0.15999,0.91479 -0.13687,1.89621 0.0693,2.94424 0.43769,2.22376 1.8483,3.86519 4.23184,4.92431 2.3836,1.05906 6.2929,1.93711 11.72793,2.63414 2.38058,0.34843 4.78244,0.81037 7.20559,1.38583 2.42317,0.57539 4.66883,1.4579 6.73698,2.64753 2.06816,1.18955 3.87386,2.77085 5.41712,4.74391 1.54326,1.97297 2.62387,4.5295 3.24186,7.66959 0.61797,3.13999 0.58638,6.08492 -0.0948,8.83479 -0.68117,2.74976 -1.92746,5.21993 -3.73887,7.41053 -1.81142,2.19047 -4.1608,4.06284 -7.04816,5.61713 -2.88736,1.55414 -6.26037,2.71095 -10.11906,3.47043 -4.5793,0.90116 -8.63393,1.18905 -12.16392,0.86367 -3.52992,-0.32554 -6.48955,-0.86381 -8.87889,-1.61481 l 2.04115,-12.93932 c 2.08973,0.60885 4.36932,1.06064 6.8388,1.35537 2.46954,0.29461 5.34019,0.11999 8.61196,-0.52386 3.66307,-0.72097 6.19588,-1.7456 7.59845,-3.07389 1.40259,-1.32841 1.89782,-3.0396 1.48569,-5.13357 -0.24474,-1.2437 -0.74474,-2.23286 -1.5,-2.9675 -0.75523,-0.73473 -1.7404,-1.33916 -2.95551,-1.81326 -1.21508,-0.47421 -2.5805,-0.85087 -4.09627,-1.12999 -1.51572,-0.27922 -3.18193,-0.54589 -4.99862,-0.8 -3.7886,-0.61259 -7.11695,-1.29912 -9.98506,-2.05961 -2.86804,-0.76057 -5.33579,-1.82072 -7.40327,-3.18044 -2.06739,-1.35981 -3.75161,-3.10084 -5.05266,-5.22309 -1.30096,-2.12233 -2.27322,-4.81838 -2.91678,-8.08814 -1.24887,-6.34599 0.006,-11.7063 3.76492,-16.08095 3.75891,-4.37468 10.11883,-7.4438 19.0798,-9.20737 3.01031,-0.59245 5.76112,-0.94668 8.25242,-1.06272 2.49133,-0.11603 4.72019,-0.0959 6.68657,0.0603 1.96641,0.15627 3.67828,0.39684 5.13562,0.72172 1.45736,0.32487 2.69563,0.65865 3.71482,1.00134 l -1.92349,13.01569 c -2.24697,-0.71276 -4.94555,-1.21791 -8.09576,-1.51545 -3.15018,-0.29757 -6.88418,-0.0215 -11.20201,0.82832 z"
         style="font-size:100px;font-style:normal;font-variant:normal;font-weight:bold;font-stretch:normal;text-align:center;text-anchor:middle;font-family:Ubuntu;-inkscape-font-specification:Ubuntu Bold"
         id="path4278"
         inkscape:connector-curvature="0" />
    </g>
    <g
       style="font-size:40px;font-style:normal;font-weight:normal;line-height:125%;letter-spacing:0px;word-spacing:0px;fill:#000000;fill-opacity:1;stroke:none;font-family:Sans"
       id="text3991-1-2-6"
       transform="translate(0,460)">
      <path
         d="m 783.55777,156.19242 c 10.82447,3.12709 18.20111,8.51991 22.12994,16.17849 3.92885,7.65858 4.29303,17.02713 1.09254,28.1057 -1.59176,5.50991 -3.87691,10.1763 -6.85548,13.99916 -2.97851,3.82278 -6.40308,6.78879 -10.27369,8.89804 -3.87056,2.10915 -8.10952,3.33103 -12.71691,3.66564 -4.60731,0.33449 -9.34443,-0.20123 -14.21138,-1.60717 -2.81844,-0.8143 -5.32026,-1.76258 -7.50548,-2.84487 -2.18508,-1.08239 -4.06379,-2.14608 -5.63612,-3.19108 -1.57219,-1.0451 -2.85128,-2.02187 -3.83729,-2.93031 -0.98585,-0.90854 -1.68954,-1.59731 -2.11107,-2.06632 l 7.82171,-10.85637 c 1.73591,1.68099 3.8536,3.29921 6.35309,4.85466 2.49962,1.55537 5.47822,2.83252 8.93581,3.83144 2.30645,0.66626 4.67557,0.93401 7.10736,0.80328 2.43189,-0.13083 4.74179,-0.79979 6.9297,-2.00689 2.188,-1.20718 4.18256,-3.00756 5.98369,-5.40114 1.8012,-2.39365 3.25684,-5.51181 4.36693,-9.35448 0.88824,-3.07457 1.38012,-6.03808 1.47565,-8.89052 0.0956,-2.85249 -0.33161,-5.45679 -1.28161,-7.81291 -0.94993,-2.35614 -2.47972,-4.44618 -4.58937,-6.27013 -2.10958,-1.82395 -4.89419,-3.23565 -8.35383,-4.23509 -2.17735,-0.62903 -4.16745,-1.06524 -5.97029,-1.30863 -1.80274,-0.24339 -3.42796,-0.38307 -4.87566,-0.41903 -1.44759,-0.036 -2.74831,0.0224 -3.90215,0.17509 -1.15373,0.15269 -2.20229,0.30032 -3.14567,0.44287 l -0.66174,-13.20233 c 2.48281,-0.66984 5.79361,-0.96229 9.93242,-0.87736 4.13891,0.0849 8.73854,0.85837 13.7989,2.32026 z"
         style="font-size:100px;font-style:normal;font-variant:normal;font-weight:bold;font-stretch:normal;text-align:center;text-anchor:middle;font-family:Ubuntu;-inkscape-font-specification:Ubuntu Bold"
         id="path4247"
         inkscape:connector-curvature="0" />
      <path
         d="m 731.11144,179.84828 c 0.70492,-3.3258 0.93323,-6.41204 0.68492,-9.25872 -0.24825,-2.84672 -0.93479,-5.39428 -2.05964,-7.6427 -1.12478,-2.24845 -2.68565,-4.12969 -4.6826,-5.64373 -1.99689,-1.51406 -4.42936,-2.57502 -7.29741,-3.18289 -2.80427,-0.59438 -5.44207,-0.60806 -7.9134,-0.041 -2.47123,0.56701 -4.67698,1.64992 -6.61727,3.24872 -1.94018,1.59879 -3.60168,3.64869 -4.9845,6.14971 -1.3827,2.50098 -2.42653,5.41437 -3.13149,8.74016 -0.70526,3.32775 -0.93665,6.43101 -0.69419,9.30979 0.24259,2.87872 0.92615,5.44281 2.05069,7.69228 1.12466,2.24939 2.70145,4.13401 4.73037,5.65385 2.02904,1.51976 4.44569,2.57685 7.24996,3.17127 2.86805,0.60783 5.52515,0.60896 7.97129,0.003 2.44622,-0.60566 4.63943,-1.70786 6.57963,-3.30661 1.94027,-1.59884 3.60475,-3.66527 4.99345,-6.19928 1.38875,-2.53409 2.42882,-5.43215 3.12019,-8.69421 z m -51.74958,-10.96831 c 1.23017,-5.8037 3.17556,-10.72373 5.83617,-14.76009 2.66076,-4.03636 5.80566,-7.21984 9.43471,-9.55045 3.62918,-2.33059 7.67367,-3.80731 12.13348,-4.43014 4.45991,-0.62282 9.07023,-0.42971 13.83097,0.57932 4.62945,0.98122 8.8396,2.6576 12.63046,5.02917 3.79091,2.37157 6.90449,5.36544 9.34077,8.98161 2.43631,3.61615 4.0686,7.81216 4.89688,12.58803 0.82831,4.77583 0.62741,10.0656 -0.60269,15.86932 -1.2305,5.80564 -3.22536,10.71622 -5.98458,14.73175 -2.75919,4.01543 -6.00559,7.19456 -9.73922,9.53738 -3.73357,2.34272 -7.79746,3.83247 -12.19169,4.46928 -4.39414,0.63669 -8.84125,0.47817 -13.34135,-0.47555 -4.63135,-0.98169 -8.84249,-2.65829 -12.63345,-5.0298 -3.79081,-2.37163 -6.90092,-5.38191 -9.33033,-9.03087 -2.42925,-3.64905 -4.05757,-7.86137 -4.88495,-12.63697 -0.82721,-4.77568 -0.62561,-10.06633 0.60482,-15.87199 z"
         style="font-size:100px;font-style:normal;font-variant:normal;font-weight:bold;font-stretch:normal;text-align:center;text-anchor:middle;font-family:Ubuntu;-inkscape-font-specification:Ubuntu Bold"
         id="path4249"
         inkscape:connector-curvature="0" />
      <path
         d="m 646.95045,199.18142 c -0.91824,-2.33127 -1.95405,-5.19847 -3.10742,-8.6016 -1.1533,-3.40325 -2.33976,-7.07866 -3.55937,-11.02624 -1.21954,-3.94768 -2.41204,-7.97651 -3.57753,-12.08649 -1.1654,-4.11005 -2.26088,-7.97605 -3.28645,-11.598 -1.88553,3.25804 -3.89899,6.7354 -6.04038,10.43208 -2.14128,3.69661 -4.28936,7.30784 -6.44426,10.83369 -2.15477,3.52576 -4.20999,6.79593 -6.16566,9.81053 -1.95553,3.0145 -3.66528,5.53848 -5.12924,7.57196 l -14.09017,-1.76138 c -0.0895,-4.64706 -0.0619,-9.83353 0.0828,-15.55941 0.14485,-5.72597 0.38469,-11.67529 0.71951,-17.84797 0.335,-6.17273 0.7048,-12.358 1.10941,-18.55581 0.40477,-6.19782 0.81393,-12.0255 1.22749,-17.48306 l 15.08341,1.88554 c -0.63742,6.70693 -1.2826,14.01672 -1.93556,21.92939 -0.65281,7.91264 -1.14849,15.91261 -1.48702,23.99992 1.5364,-2.62925 3.24318,-5.53958 5.12036,-8.73099 1.87732,-3.19148 3.73797,-6.38551 5.58198,-9.58211 1.84412,-3.19663 3.62005,-6.25004 5.32779,-9.16024 1.70785,-2.91021 3.16146,-5.39855 4.36084,-7.46503 l 10.81366,1.35179 c 0.65386,2.29815 1.45019,5.06775 2.38899,8.30881 0.93888,3.24104 1.90851,6.63767 2.90889,10.18989 1.00044,3.55217 2.01757,7.10595 3.05139,10.66134 1.03388,3.55532 1.97272,6.79637 2.81652,9.72316 1.6608,-7.92202 3.14871,-15.79795 4.46373,-23.62781 1.31508,-7.82989 2.48918,-15.07357 3.52233,-21.73103 l 15.08341,1.88554 c -0.94256,5.39143 -1.98058,11.1405 -3.11406,17.24723 -1.13346,6.10669 -2.29765,12.19265 -3.49258,18.25789 -1.19491,6.06516 -2.42698,11.89044 -3.69623,17.47585 -1.26921,5.58531 -2.5192,10.61897 -3.74996,15.101 z"
         style="font-size:100px;font-style:normal;font-variant:normal;font-weight:bold;font-stretch:normal;text-align:center;text-anchor:middle;font-family:Ubuntu;-inkscape-font-specification:Ubuntu Bold"
         id="path4251"
         inkscape:connector-curvature="0" />
      <path
         d="m 563.89305,190.90305 c -1.12182,-2.24043 -2.40837,-5.00422 -3.85965,-8.29137 -1.45123,-3.28727 -2.95966,-6.84267 -4.52532,-10.66623 -1.56558,-3.82366 -3.11146,-7.73055 -4.63764,-11.72068 -1.5261,-3.9902 -2.96086,-7.74352 -4.3043,-11.25998 -1.58848,3.41273 -3.28489,7.05529 -5.08924,10.92766 -1.80424,3.87231 -3.62285,7.66017 -5.45584,11.36359 -1.83287,3.70333 -3.58929,7.14324 -5.26927,10.31973 -1.67986,3.17637 -3.15851,5.84233 -4.43594,7.99788 l -14.19095,-0.50204 c -0.50215,-4.62072 -0.93563,-9.78912 -1.30046,-15.50519 -0.36465,-5.71619 -0.65455,-11.66327 -0.86969,-17.84128 -0.21497,-6.17808 -0.3964,-12.37173 -0.54427,-18.58097 -0.1477,-6.20927 -0.25814,-12.05026 -0.33129,-17.52298 l 15.1913,0.53743 c -0.0388,6.73705 -0.0317,14.07526 0.0212,22.01464 0.0531,7.93935 0.27041,15.95171 0.65203,24.0371 1.29662,-2.7554 2.73797,-5.80591 4.32406,-9.15154 1.58622,-3.34571 3.15562,-6.69247 4.70821,-10.04032 1.5527,-3.3479 3.05021,-6.54707 4.49252,-9.59753 1.44243,-3.05049 2.66912,-5.65819 3.68008,-7.82308 l 10.89101,0.38529 c 0.85554,2.23094 1.89488,4.91879 3.11804,8.06359 1.22324,3.14476 2.49092,6.44176 3.80307,9.89101 1.31221,3.44919 2.64118,6.8985 3.98692,10.34793 1.34579,3.44935 2.56899,6.59413 3.66959,9.43434 0.9501,-8.03828 1.73209,-16.01529 2.34597,-23.93104 0.61394,-7.91579 1.13956,-15.23515 1.57689,-21.9581 l 15.1913,0.53743 c -0.45962,5.45387 -0.98254,11.27245 -1.56876,17.45576 -0.5862,6.18327 -1.20485,12.34861 -1.85596,18.49605 -0.65109,6.14737 -1.36053,12.0591 -2.12831,17.73522 -0.76776,5.67601 -1.56539,10.80085 -2.39291,15.37453 z"
         style="font-size:100px;font-style:normal;font-variant:normal;font-weight:bold;font-stretch:normal;text-align:center;text-anchor:middle;font-family:Ubuntu;-inkscape-font-specification:Ubuntu Bold"
         id="path4253"
         inkscape:connector-curvature="0" />
      <path
         d="m 467.96412,119.91227 c 4.86195,-0.21177 9.08795,0.2884 12.67801,1.50052 3.5901,1.21211 6.58699,2.9836 8.99069,5.31448 2.40372,2.33087 4.22812,5.15383 5.47319,8.4689 1.2451,3.31503 1.95612,7.00411 2.13309,11.06725 l 1.8755,43.05915 -15.58581,0.67886 -1.81893,-41.76033 c -0.12179,-2.79685 -0.54155,-5.16374 -1.25927,-7.10067 -0.71767,-1.93697 -1.65318,-3.49788 -2.80652,-4.68273 -1.1533,-1.18487 -2.5241,-2.00949 -4.1124,-2.47384 -1.58825,-0.46438 -3.31433,-0.65597 -5.17824,-0.57477 -3.79681,0.16536 -6.82641,1.46521 -9.08879,3.89955 -2.2623,2.43431 -3.27165,6.4483 -3.02806,12.04198 l 1.81892,41.76033 -15.58581,0.67886 -1.87549,-43.05915 c -0.17691,-4.06315 0.22671,-7.81758 1.21085,-11.26331 0.98427,-3.44576 2.58912,-6.43489 4.81454,-8.96739 2.22554,-2.53251 5.10759,-4.54327 8.64615,-6.03228 3.53866,-1.48901 7.77145,-2.34081 12.69838,-2.55541 z"
         style="font-size:100px;font-style:normal;font-variant:normal;font-weight:bold;font-stretch:normal;text-align:center;text-anchor:middle;font-family:Ubuntu;-inkscape-font-specification:Ubuntu Bold"
         id="path4255"
         inkscape:connector-curvature="0" />
      <path
         d="m 378.28282,129.08464 c 5.35709,7.36125 11.06638,14.58155 17.12788,21.66092 6.06157,7.07931 12.40322,13.68916 19.02497,19.82958 l -5.26198,-45.09504 15.29843,-1.78512 8.03178,68.8323 -12.61581,1.4721 c -2.43937,-1.92965 -5.16914,-4.32923 -8.18933,-7.19874 -3.02015,-2.86964 -6.11494,-5.94865 -9.28439,-9.23704 -3.16938,-3.28851 -6.33701,-6.71082 -9.50288,-10.26694 -3.16579,-3.55622 -6.14966,-6.98358 -8.95161,-10.28211 l 4.74027,40.62403 -15.39542,1.79644 -8.03179,-68.83231 z"
         style="font-size:100px;font-style:normal;font-variant:normal;font-weight:bold;font-stretch:normal;text-align:center;text-anchor:middle;font-family:Ubuntu;-inkscape-font-specification:Ubuntu Bold"
         id="path4257"
         inkscape:connector-curvature="0" />
      <path
         d="m 361.23861,201.7656 -15.37622,2.63627 -11.71056,-68.3027 15.37623,-2.63626 z"
         style="font-size:100px;font-style:normal;font-variant:normal;font-weight:bold;font-stretch:normal;text-align:center;text-anchor:middle;font-family:Ubuntu;-inkscape-font-specification:Ubuntu Bold"
         id="path4259"
         inkscape:connector-curvature="0" />
      <path
         d="m 283.02558,217.56072 -2.85712,-12.98904 20.4105,-4.48957 -12.03032,-54.69226 15.23635,-3.35145 12.03031,54.69227 20.41348,-4.49022 2.85712,12.98904 z"
         style="font-size:100px;font-style:normal;font-variant:normal;font-weight:bold;font-stretch:normal;text-align:center;text-anchor:middle;font-family:Ubuntu;-inkscape-font-specification:Ubuntu Bold"
         id="path4261"
         inkscape:connector-curvature="0" />
      <path
         d="m 245.42008,198.6796 c -1.37866,5.32441 -2.62943,10.61146 -3.75233,15.86118 -1.12284,5.24959 -2.04498,10.47579 -2.7664,15.67862 l -16.52681,4.76386 c 1.58375,-8.22722 3.36017,-16.26695 5.32926,-24.11919 1.96917,-7.85237 4.15298,-15.80096 6.55144,-23.84581 l -7.3402,-25.46466 14.99025,-4.32095 7.28441,25.27113 c 6.3126,5.53388 12.41713,11.12829 18.3136,16.78325 5.89647,5.65487 11.70462,11.54327 17.42446,17.66523 l -17.39186,5.01321 c -3.37805,-4.02115 -6.90773,-7.96411 -10.58906,-11.8289 -3.6813,-3.8649 -7.52355,-7.68389 -11.52676,-11.45697 z"
         style="font-size:100px;font-style:normal;font-variant:normal;font-weight:bold;font-stretch:normal;text-align:center;text-anchor:middle;font-family:Ubuntu;-inkscape-font-specification:Ubuntu Bold"
         id="path4263"
         inkscape:connector-curvature="0" />
    </g>
  </g>
</svg>
