# Blender v2.68 (sub 0) OBJ File: 'la_guardia_air_terminal.blend'
# www.blender.org
o map_la_guardia_air_terminal_navmesh_Cube.003
v -16.700001 0.100000 5.300000
v -18.299999 0.100000 5.300000
v -18.299999 0.100000 3.700000
v -16.700001 0.100000 3.700000
v -16.700001 0.100000 9.700000
v -18.299999 0.100000 9.700000
v -18.299999 0.100000 11.300000
v -16.700001 0.100000 11.300000
v -18.299999 0.100000 -0.700000
v -18.299999 0.100000 -2.300000
v -16.700001 0.100000 -2.300000
v -18.299999 0.100000 15.700000
v -18.299999 0.100000 17.299999
v -16.700001 0.100000 17.299999
v 11.300000 0.100000 5.300000
v 9.700000 0.100000 3.700000
v 11.300000 0.100000 3.700000
v 11.300000 0.100000 9.700000
v 9.700000 0.100000 9.700000
v 9.700000 0.100000 11.300000
v 11.300000 0.100000 11.300000
v 9.700000 0.100000 -0.700000
v 9.700000 0.100000 -2.300000
v 11.300000 0.100000 -2.300000
v 11.300000 0.100000 15.700000
v 9.700000 0.100000 15.700000
v 9.700000 0.100000 17.299999
v 11.300000 0.100000 17.299999
v -19.000000 0.100000 28.600002
v -19.000000 0.100000 29.100002
v -21.400002 0.100000 15.600000
v -21.400002 0.100000 14.000001
v -21.400002 0.100000 11.400002
v -26.600002 0.100000 11.400002
v -26.600002 0.100000 26.600002
v -17.400000 0.100000 28.600002
v -17.400000 0.100000 22.400002
v -22.400000 0.100000 22.400002
v -21.600000 0.100000 26.600002
v -21.600000 0.100000 28.600002
v -22.400000 0.100000 15.600000
v -20.000000 0.100000 29.100002
v -20.000000 0.100000 28.600002
v -20.600000 0.100000 18.600000
v -21.400002 0.100000 13.000001
v -15.000002 0.100000 18.600000
v 7.999998 0.100000 18.600000
v 13.599998 0.100000 18.600000
v 14.399998 0.100000 18.600000
v 23.599998 0.100000 18.600000
v 23.599998 0.100000 14.400000
v 23.599998 0.100000 13.599999
v 23.599998 0.100000 9.400000
v 6.599996 0.100000 -25.600000
v 14.399998 0.100000 9.400000
v 14.399998 0.100000 8.599999
v 13.599998 0.100000 11.001082
v 14.399998 0.100000 13.599998
v 14.399998 0.100000 14.399999
v -7.600004 0.100000 -25.600000
v 14.399998 0.100000 8.000000
v 14.399998 0.100000 -0.600001
v 16.001345 0.100000 13.599998
v 23.599997 0.100000 -0.600001
v 23.599997 0.100000 -1.400000
v 23.599997 0.100000 -4.600000
v 23.599997 0.100000 -5.400001
v 14.399996 0.100000 -4.600000
v 13.599996 0.100000 -4.600000
v 14.399996 0.100000 -1.400001
v 23.599997 0.100000 -6.300001
v 23.599997 0.100000 -7.700001
v 23.799997 0.100000 -7.700001
v 23.599997 0.100000 -8.600000
v 7.399996 0.100000 -8.600000
v 7.399996 0.100000 -5.400001
v 6.599996 0.100000 -5.400001
v 7.999996 0.100000 -4.600000
v 23.599997 0.100000 8.599999
v -8.400004 0.100000 -25.600000
v -8.400004 0.100000 -23.400000
v -7.600004 0.100000 -22.600000
v -11.000004 0.100000 -22.600000
v -13.400003 0.100000 -23.400000
v -13.400003 0.100000 -22.900000
v -12.600003 0.100000 -5.400000
v -13.400003 0.100000 -5.400000
v -12.900003 0.100000 -4.599999
v -13.100003 0.100000 -4.599999
v -10.400003 0.100000 -5.400000
v -10.100003 0.100000 -4.599999
v -10.400003 0.100000 -8.299999
v -9.600003 0.100000 -8.299999
v -20.600002 0.100000 -4.599999
v -25.000002 0.100000 -4.900000
v -29.000002 0.100000 -4.900000
v -31.600000 0.100000 -5.400000
v -31.600000 0.100000 -25.599998
v -11.000004 0.100000 -23.400000
v 8.999995 0.100000 -5.400001
v 7.999996 0.100000 -5.400001
v 23.799997 0.100000 -6.300001
v -20.600000 0.100000 14.000000
v -20.600000 0.100000 13.000000
v -16.700001 0.100000 -0.700000
v -16.700001 0.100000 15.700000
v 9.700000 0.100000 5.300000
v 11.300000 0.100000 -0.700000
v 22.999998 0.100000 14.400000
v 22.999998 0.100000 13.599999
v 14.399998 0.100000 10.999999
v 14.399998 0.100000 11.999999
v 14.399998 0.100000 15.999998
v 13.599998 0.100000 15.999998
v 14.399998 0.100000 16.999998
v 15.999997 0.100000 14.399999
v 14.399998 0.100000 7.000000
v 13.599998 0.100000 7.000000
v 21.999996 0.100000 -0.600000
v 21.999996 0.100000 -1.400001
v 22.999996 0.100000 -1.400001
v 22.999996 0.100000 -0.600000
v 8.999995 0.100000 -4.600000
v -12.600003 0.100000 -22.600000
v -12.900003 0.100000 -23.400000
v 6.643055 0.100000 -4.599999
v -9.600003 0.100000 -5.400000
v 13.599998 0.100000 11.999999
v 13.599998 0.100000 8.000000
v 13.599998 0.100000 16.999998
v -25.000002 0.100000 -5.400000
v -29.000002 0.100000 -5.400000
vn 0.000000 -1.000000 0.000000
vn 0.000000 1.000000 -0.000000
s off
f 1//1 5//1 2//1
f 105//1 4//1 9//1
f 89//1 11//1 10//1
f 6//1 7//1 104//1
f 8//1 106//1 7//1
f 70//2 120//2 68//2
f 103//1 12//1 13//1
f 113//2 116//2 59//2
f 63//2 112//2 58//2
f 117//2 119//2 62//2
f 100//2 101//2 123//2
f 14//1 46//1 44//1
f 41//2 33//2 34//2
f 35//2 38//2 34//2
f 37//2 38//2 35//2
f 37//2 39//2 36//2
f 95//1 96//1 131//1
f 99//2 81//2 80//2
f 92//2 86//2 90//2
f 76//2 74//2 75//2
f 99//1 83//1 125//1
f 85//2 98//2 97//2
f 77//2 54//2 127//2
f 102//2 73//2 71//2
f 47//1 26//1 27//1
f 69//1 24//1 23//1
f 108//1 17//1 22//1
f 15//1 18//1 107//1
f 21//1 25//1 20//1
f 28//1 48//1 27//1
f 48//1 28//1 130//1
f 114//1 25//1 21//1
f 128//1 21//1 18//1
f 57//1 18//1 129//1
f 118//2 129//2 117//2
f 42//2 30//2 43//2
f 82//2 83//2 92//2
f 121//2 120//2 122//2
f 128//2 112//2 111//2
f 104//2 45//2 32//2
f 77//1 126//1 91//1
f 130//2 115//2 114//2
f 110//2 63//2 116//2
f 5//1 6//1 2//1
f 4//1 3//1 9//1
f 94//1 89//1 10//1
f 2//1 6//1 104//1
f 3//1 2//1 104//1
f 3//1 104//1 94//1
f 9//1 3//1 94//1
f 10//1 9//1 94//1
f 7//1 106//1 104//1
f 106//1 12//1 103//1
f 104//1 106//1 103//1
f 68//2 120//2 66//2
f 120//2 121//2 66//2
f 121//2 65//2 66//2
f 44//1 103//1 13//1
f 50//2 51//2 49//2
f 115//2 116//2 113//2
f 109//2 116//2 115//2
f 51//2 109//2 49//2
f 109//2 115//2 49//2
f 52//2 53//2 55//2
f 63//2 111//2 112//2
f 63//2 110//2 111//2
f 110//2 52//2 55//2
f 111//2 110//2 55//2
f 56//2 79//2 64//2
f 117//2 122//2 119//2
f 117//2 61//2 122//2
f 61//2 56//2 122//2
f 56//2 64//2 122//2
f 101//2 78//2 123//2
f 13//1 14//1 44//1
f 31//2 32//2 41//2
f 32//2 45//2 41//2
f 45//2 33//2 41//2
f 38//2 41//2 34//2
f 39//2 37//2 35//2
f 39//2 40//2 43//2
f 36//2 39//2 29//2
f 39//2 43//2 29//2
f 96//1 132//1 131//1
f 125//2 99//2 80//2
f 125//2 80//2 98//2
f 84//2 125//2 98//2
f 85//2 84//2 98//2
f 83//2 124//2 86//2
f 92//2 83//2 86//2
f 67//2 71//2 100//2
f 71//2 72//2 100//2
f 72//2 74//2 100//2
f 74//2 76//2 101//2
f 100//2 74//2 101//2
f 83//1 124//1 125//1
f 87//2 85//2 131//2
f 85//2 97//2 132//2
f 131//2 85//2 132//2
f 54//2 60//2 82//2
f 127//2 54//2 93//2
f 54//2 82//2 93//2
f 73//2 72//2 71//2
f 14//1 106//1 46//1
f 23//1 78//1 123//1
f 23//1 126//1 78//1
f 22//1 126//1 23//1
f 16//1 126//1 22//1
f 16//1 91//1 126//1
f 89//1 105//1 11//1
f 89//1 4//1 105//1
f 106//1 8//1 46//1
f 46//1 8//1 47//1
f 47//1 20//1 26//1
f 47//1 8//1 20//1
f 107//1 91//1 16//1
f 19//1 91//1 107//1
f 19//1 88//1 91//1
f 8//1 5//1 20//1
f 5//1 1//1 20//1
f 1//1 4//1 89//1
f 20//1 1//1 89//1
f 19//1 20//1 88//1
f 20//1 89//1 88//1
f 123//1 69//1 23//1
f 17//1 16//1 22//1
f 18//1 19//1 107//1
f 25//1 26//1 20//1
f 48//1 47//1 27//1
f 28//1 25//1 114//1
f 130//1 28//1 114//1
f 128//1 114//1 21//1
f 57//1 128//1 18//1
f 18//1 15//1 129//1
f 69//1 108//1 24//1
f 118//1 108//1 69//1
f 17//1 108//1 118//1
f 15//1 17//1 129//1
f 17//1 118//1 129//1
f 129//2 61//2 117//2
f 30//2 29//2 43//2
f 93//2 82//2 92//2
f 120//2 119//2 122//2
f 57//2 128//2 111//2
f 103//2 104//2 32//2
f 127//1 77//1 91//1
f 115//2 113//2 114//2
f 109//2 110//2 116//2
